<svg width="216" height="53" viewBox="0 0 216 53" fill="none" xmlns="http://www.w3.org/2000/svg">
<path d="M0.936035 13.0118C0.936035 20.3198 6.44404 25.4318 13.788 25.4318C21.132 25.4318 26.604 20.3198 26.604 13.0118C26.604 5.7038 21.132 0.591797 13.788 0.591797C6.44404 0.591797 0.936035 5.7038 0.936035 13.0118ZM20.304 13.0118C20.304 16.8998 17.748 19.9598 13.788 19.9598C9.79204 19.9598 7.23604 16.8998 7.23604 13.0118C7.23604 9.0878 9.79204 6.0638 13.788 6.0638C17.748 6.0638 20.304 9.0878 20.304 13.0118Z" fill="black"/>
<path d="M35.1225 31.6238V22.9478C36.5625 24.6758 38.3265 25.4318 40.2705 25.4318C44.6265 25.4318 47.9025 22.1918 47.9025 16.2878C47.9025 10.4198 44.6265 7.1798 40.2705 7.1798C38.2905 7.1798 36.4905 7.9718 35.1225 9.6278V7.6118H29.5785V31.6238H35.1225ZM42.2505 16.2878C42.2505 18.9158 40.5945 20.5358 38.4345 20.5358C37.2465 20.5358 35.8065 19.8518 35.1225 18.9518V13.6598C35.8065 12.7238 37.2465 12.0758 38.4345 12.0758C40.5945 12.0758 42.2505 13.6958 42.2505 16.2878Z" fill="black"/>
<path d="M49.6609 16.2878C49.6609 21.9398 53.8009 25.4318 59.1649 25.4318C61.8289 25.4318 64.7089 24.6758 66.4369 23.1278L64.0969 19.6718C63.1249 20.5358 61.3969 21.1478 59.8489 21.1478C57.2569 21.1478 55.7449 19.6718 55.4209 18.0518H67.8049V16.8638C67.8049 10.9598 64.0609 7.1798 58.9129 7.1798C53.4769 7.1798 49.6609 11.2478 49.6609 16.2878ZM58.9129 11.4638C61.4689 11.4638 62.3689 13.2278 62.5129 14.4518H55.3489C55.5649 13.1918 56.5009 11.4638 58.9129 11.4638Z" fill="black"/>
<path d="M82.3076 24.9998H87.8516V12.6878C87.8516 9.4838 86.0516 7.1798 82.0916 7.1798C79.1756 7.1798 77.1236 8.5118 76.0796 9.7358V7.6118H70.5356V24.9998H76.0796V13.7678C76.7276 12.9758 77.8076 12.0758 79.4636 12.0758C81.1916 12.0758 82.3076 12.8318 82.3076 14.9558V24.9998Z" fill="black"/>
<path d="M92.6674 24.9998H103.611C108.003 24.9998 110.559 22.3718 110.559 18.5198C110.559 15.6398 108.435 13.0118 105.879 12.6158C108.075 12.1478 110.091 10.1318 110.091 7.1078C110.091 3.5078 107.535 0.987796 103.359 0.987796H92.6674V24.9998ZM95.6554 11.3918V3.6518H102.855C105.555 3.6518 106.995 5.3798 106.995 7.5398C106.995 9.7358 105.555 11.3918 102.855 11.3918H95.6554ZM95.6554 22.3358V14.0558H102.999C105.951 14.0558 107.463 15.9998 107.463 18.1958C107.463 20.7518 105.807 22.3358 102.999 22.3358H95.6554Z" fill="black"/>
<path d="M126.072 24.9998H128.772V13.0478C128.772 8.8358 125.712 7.1798 122.04 7.1798C119.196 7.1798 116.964 8.1158 115.092 10.0598L116.352 11.9318C117.9 10.2758 119.592 9.5198 121.68 9.5198C124.2 9.5198 126.072 10.8518 126.072 13.1918V16.3238C124.668 14.7038 122.688 13.9478 120.312 13.9478C117.36 13.9478 114.228 15.7838 114.228 19.6718C114.228 23.4518 117.36 25.4318 120.312 25.4318C122.652 25.4318 124.632 24.6038 126.072 23.0198V24.9998ZM126.072 21.3278C125.028 22.7678 123.192 23.4878 121.284 23.4878C118.764 23.4878 117 21.9038 117 19.7078C117 17.4758 118.764 15.8918 121.284 15.8918C123.192 15.8918 125.028 16.6118 126.072 18.0518V21.3278Z" fill="black"/>
<path d="M145.92 24.9998H148.62V12.7958C148.62 9.0158 146.712 7.1798 143.076 7.1798C140.484 7.1798 138.108 8.6918 136.884 10.1318V7.6118H134.184V24.9998H136.884V12.2918C137.892 10.8878 139.908 9.5918 142.032 9.5918C144.372 9.5918 145.92 10.5638 145.92 13.6238V24.9998Z" fill="black"/>
<path d="M165.857 24.9998H169.313L161.573 15.4958L169.277 7.6118H165.857L156.713 16.8638V0.987796H154.013V24.9998H156.713V20.0318L159.593 17.1878L165.857 24.9998Z" fill="black"/>
<path d="M173.837 4.6958C174.845 4.6958 175.673 3.8678 175.673 2.8598C175.673 1.8518 174.845 1.0598 173.837 1.0598C172.865 1.0598 172.037 1.8518 172.037 2.8598C172.037 3.8678 172.865 4.6958 173.837 4.6958ZM172.505 24.9998H175.205V7.6118H172.505V24.9998Z" fill="black"/>
<path d="M192.327 24.9998H195.027V12.7958C195.027 9.0158 193.119 7.1798 189.483 7.1798C186.891 7.1798 184.515 8.6918 183.291 10.1318V7.6118H180.591V24.9998H183.291V12.2918C184.299 10.8878 186.315 9.5918 188.439 9.5918C190.779 9.5918 192.327 10.5638 192.327 13.6238V24.9998Z" fill="black"/>
<path d="M200.383 29.4638C202.435 31.4798 204.451 32.0558 207.403 32.0558C211.651 32.0558 215.683 30.2558 215.683 24.4958V7.6118H212.983V10.2398C211.579 8.3318 209.491 7.1798 207.151 7.1798C202.579 7.1798 199.411 10.6358 199.411 16.2158C199.411 21.8318 202.615 25.2158 207.151 25.2158C209.599 25.2158 211.723 23.8838 212.983 22.1198V24.6038C212.983 28.4198 210.283 29.8238 207.403 29.8238C204.919 29.8238 203.191 29.1758 201.751 27.4478L200.383 29.4638ZM212.983 19.9958C212.047 21.5078 209.959 22.8398 207.799 22.8398C204.307 22.8398 202.219 20.0318 202.219 16.2158C202.219 12.3638 204.307 9.5918 207.799 9.5918C209.959 9.5918 212.047 10.8878 212.983 12.3998V19.9958Z" fill="black"/>
<path d="M132.006 51.9997H134.694L129.192 37.9927H126.126L120.624 51.9997H123.312L124.341 49.3117H130.977L132.006 51.9997ZM127.659 40.0717L130.284 47.1487H125.034L127.659 40.0717Z" fill="black"/>
<path d="M143.3 51.9997H145.505V37.9927H143.3V43.2637C142.481 42.1927 141.305 41.6047 140.045 41.6047C137.42 41.6047 135.53 43.6627 135.53 46.9387C135.53 50.2777 137.441 52.2517 140.045 52.2517C141.347 52.2517 142.523 51.6217 143.3 50.6137V51.9997ZM143.3 48.9547C142.796 49.7107 141.725 50.2987 140.675 50.2987C138.932 50.2987 137.819 48.8917 137.819 46.9387C137.819 44.9647 138.932 43.5577 140.675 43.5577C141.725 43.5577 142.796 44.1667 143.3 44.9227V48.9547Z" fill="black"/>
<path d="M151.03 51.9997H153.403L157.54 41.8567H155.167L152.206 49.4587L149.245 41.8567H146.893L151.03 51.9997Z" fill="black"/>
<path d="M165.119 51.9997H167.324V45.2797C167.324 42.5497 165.35 41.6047 163.103 41.6047C161.486 41.6047 160.016 42.1297 158.84 43.2427L159.743 44.7757C160.625 43.9147 161.612 43.4947 162.746 43.4947C164.153 43.4947 165.119 44.2087 165.119 45.3847V46.8967C164.384 46.0357 163.208 45.5947 161.843 45.5947C160.184 45.5947 158.315 46.5607 158.315 48.8917C158.315 51.1387 160.184 52.2517 161.843 52.2517C163.187 52.2517 164.363 51.7687 165.119 50.9077V51.9997ZM165.119 49.6897C164.615 50.3827 163.67 50.7397 162.704 50.7397C161.465 50.7397 160.541 50.0257 160.541 48.9337C160.541 47.8207 161.465 47.1067 162.704 47.1067C163.67 47.1067 164.615 47.4637 165.119 48.1567V49.6897Z" fill="black"/>
<path d="M177.029 51.9997H179.234V44.8597C179.234 42.7807 178.142 41.6047 175.958 41.6047C174.362 41.6047 173.06 42.4447 172.388 43.2427V41.8567H170.183V51.9997H172.388V44.9227C172.892 44.2297 173.858 43.5577 174.992 43.5577C176.231 43.5577 177.029 44.0827 177.029 45.6577V51.9997Z" fill="black"/>
<path d="M181.468 46.9177C181.468 50.0047 183.631 52.2517 186.718 52.2517C188.692 52.2517 189.889 51.4117 190.603 50.4457L189.154 49.1017C188.587 49.8787 187.81 50.2987 186.823 50.2987C184.975 50.2987 183.757 48.8917 183.757 46.9177C183.757 44.9437 184.975 43.5577 186.823 43.5577C187.81 43.5577 188.587 43.9567 189.154 44.7547L190.603 43.4107C189.889 42.4447 188.692 41.6047 186.718 41.6047C183.631 41.6047 181.468 43.8517 181.468 46.9177Z" fill="black"/>
<path d="M191.906 46.9177C191.906 50.1307 194.174 52.2517 197.219 52.2517C198.836 52.2517 200.327 51.7477 201.335 50.7817L200.327 49.3327C199.613 50.0467 198.437 50.4457 197.45 50.4457C195.539 50.4457 194.384 49.1857 194.216 47.6527H202.049V47.1277C202.049 43.9357 200.096 41.6047 197.051 41.6047C194.048 41.6047 191.906 43.9777 191.906 46.9177ZM197.051 43.4107C199.046 43.4107 199.865 44.9017 199.907 46.0987H194.195C194.3 44.8597 195.161 43.4107 197.051 43.4107Z" fill="black"/>
<path d="M211.366 51.9997H213.571V37.9927H211.366V43.2637C210.547 42.1927 209.371 41.6047 208.111 41.6047C205.486 41.6047 203.596 43.6627 203.596 46.9387C203.596 50.2777 205.507 52.2517 208.111 52.2517C209.413 52.2517 210.589 51.6217 211.366 50.6137V51.9997ZM211.366 48.9547C210.862 49.7107 209.791 50.2987 208.741 50.2987C206.998 50.2987 205.885 48.8917 205.885 46.9387C205.885 44.9647 206.998 43.5577 208.741 43.5577C209.791 43.5577 210.862 44.1667 211.366 44.9227V48.9547Z" fill="black"/>
</svg>
